#!OML:ASF I:\Actors\actors\Patient Classification 2\Patient 1\Session 1\actor1.ASF
:FULLY-SPECIFIED
:DEGREES
316
root -0.659769 18.7069 6.07972 3.25149 21.4383 -2.76183
lowerback 13.7197 6.8288 4.59753
upperback -0.725694 9.6942 -1.75075
thorax -7.33724 4.51131 -6.26193
lowerneck -8.47191 -17.3332 -12.9647
upperneck 11.3515 -25.0339 19.4389
head 9.14628 -11.2742 5.07918
rclavicle 6.49032e-014 -2.16675e-014
rhumerus 40.8625 2.61438 -23.9231
rradius 66.1139
rwrist -8.38791
rhand 9.53738 -33.2115
rfingers 7.12502
rthumb 34.6874 -59.84
lclavicle 6.49032e-014 -2.16675e-014
lhumerus -28.502 -49.39 86.4666
lradius 110.649
lwrist 22.8146
lhand -16.3302 -38.3469
lfingers 7.12502
lthumb 9.88159 -8.59884
rfemur 8.64702 -11.4984 17.5211
rtibia 0
rfoot -22.4228 -18.5451
rtoes -11.5624
lfemur -16.7671 -12.8727 -9.25143
ltibia 31.2487
lfoot -16.6793 2.92018
ltoes -55.0004
317
root -0.674772 18.7367 6.18678 3.92903 20.433 -2.08532
lowerback 12.7823 7.40571 4.21414
upperback -1.20475 10.3352 -2.38211
thorax -7.19499 4.83443 -6.71696
lowerneck -7.67448 -17.8452 -12.8512
upperneck 10.9716 -25.9308 20.1747
head 9.13527 -11.7057 5.17592
rclavicle 1.37161e-013 -3.22031e-014
rhumerus 50.6802 10.6845 -20.0857
rradius 70.2432
rwrist -7.16122
rhand 12.6601 -15.0818
rfingers 7.12502
rthumb 37.6448 -40.9768
lclavicle 1.37161e-013 -3.22031e-014
lhumerus -33.1812 -48.6386 90.9338
lradius 109.514
lwrist 22.0357
lhand -15.0788 -39.7469
lfingers 7.12502
lthumb 11.0887 -10.0598
rfemur 8.32587 -10.5675 17.0347
rtibia -2.38542e-014
rfoot -22.4576 -18.5669
rtoes -11.4346
lfemur -16.1336 -12.8771 -9.76062
ltibia 30.335
lfoot -16.6077 3.51574
ltoes -54.7227
318
root -0.696358 18.7569 6.29501 4.36914 20.0238 -1.43319
lowerback 12.2111 7.96168 3.87075
upperback -1.57756 10.9683 -3.08583
thorax -7.11564 5.15039 -7.30455
lowerneck -7.14025 -18.2082 -12.4493
upperneck 10.3964 -26.6062 21.0666
head 9.06028 -12.0095 5.31274
rclavicle 6.85807e-014 1.74931e-014
rhumerus 59.2544 16.456 -16.5823
rradius 73.7975
rwrist -4.14758
rhand 8.21619 -3.87131
rfingers 7.12502
rthumb 33.4326 -30.7792
lclavicle 6.85807e-014 1.74931e-014
lhumerus -36.6564 -48.4929 93.9821
lradius 108.523
lwrist 20.8542
lhand -13.5955 -40.5702
lfingers 7.12502
lthumb 12.5191 -10.9652
rfemur 8.35094 -10.2275 16.5498
rtibia -1.11319e-014
rfoot -22.4661 -18.5171
rtoes -11.0277
lfemur -15.5384 -12.9413 -10.2161
ltibia 29.5614
lfoot -16.3395 3.59071
ltoes -54.5157
319
root -0.720693 18.7652 6.39389 4.43353 20.3335 -1.03998
lowerback 11.9876 8.49137 3.71281
upperback -1.75094 11.6133 -3.65864
thorax -6.99733 5.47287 -7.88492
lowerneck -6.81638 -18.609 -12.2183
upperneck 9.63513 -27.2762 22.0999
head 9.01418 -12.3083 5.49339
rclavicle 1.19619e-013 -3.57812e-014
rhumerus 67.8108 22.2929 -16.1786
rradius 73.7933
rwrist 1.301
rhand 6.49817 -5.88751
rfingers 7.12502
rthumb 31.7979 -33.1338
lclavicle 1.19619e-013 -3.57812e-014
lhumerus -39.2039 -48.7855 96.2827
lradius 107.845
lwrist 19.8869
lhand -12.2784 -40.6728
lfingers 7.12502
lthumb 13.7887 -11.1498
rfemur 8.77952 -10.5703 16.285
rtibia 4.77083e-015
rfoot -22.5311 -18.3526
rtoes -10.1552
lfemur -14.9935 -13.0415 -10.4436
ltibia 29.0019
lfoot -15.8997 3.37363
ltoes -55.7201
320
root -0.744459 18.7623 6.48065 4.1688 21.2957 -0.995471
lowerback 11.7703 8.98751 3.43558
upperback -1.60428 12.2247 -3.72665
thorax -6.66955 5.80743 -7.82396
lowerneck -6.33865 -19.0134 -12.6022
upperneck 8.24535 -27.7687 23.2434
head 8.81586 -12.5994 5.82983
rclavicle -1.20861e-013 2.62396e-014
rhumerus 74.7046 27.8461 -15.7301
rradius 74.5756
rwrist 5.54028
rhand 6.357 -3.9705
rfingers 7.12502
rthumb 31.6634 -31.2434
lclavicle -1.20861e-013 2.62396e-014
lhumerus -40.997 -48.8948 98.5469
lradius 107.446
lwrist 19.7129
lhand -11.0863 -40.4818
lfingers 7.12502
lthumb 14.9373 -11.0404
rfemur 9.51162 -11.5221 16.3146
rtibia 2.06736e-014
rfoot -22.6418 -18.0582
rtoes -9.08342
lfemur -14.5817 -13.1237 -10.3883
ltibia 28.7099
lfoot -15.3549 3.00987
ltoes -58.8117
321
root -0.767219 18.7519 6.55428 3.71687 22.7439 -1.18159
lowerback 11.3519 9.42815 2.698
upperback -1.13462 12.7254 -3.1995
thorax -6.14111 6.12165 -6.81431
lowerneck -5.84252 -19.289 -13.1797
upperneck 6.43128 -27.865 23.9516
head 8.36001 -12.7758 6.14587
rclavicle 1.67824e-013 -1.94809e-014
rhumerus 79.1877 33.2444 -15.2156
rradius 77.5657
rwrist 8.43335
rhand 6.58468 -3.79783
rfingers 7.12502
rthumb 31.8803 -31.0277
lclavicle 1.67824e-013 -1.94809e-014
lhumerus -42.1148 -48.5745 100.842
lradius 107.237
lwrist 20.259
lhand -10.1913 -40.3286
lfingers 7.12502
lthumb 15.7994 -10.9533
rfemur 10.4006 -12.9333 16.4984
rtibia -1.27222e-014
rfoot -22.6716 -17.6854
rtoes -8.36567
lfemur -14.3507 -13.4641 -10.1389
ltibia 28.7022
lfoot -15.0057 2.59386
ltoes -59.6105
322
root -0.78833 18.7405 6.61006 3.30565 24.5166 -1.43526
lowerback 11.8138 9.99537 3.29844
upperback -0.993752 13.5548 -3.51776
thorax -5.92958 6.52445 -7.61306
lowerneck -5.13117 -19.8641 -13.2402
upperneck 4.61589 -28.4887 24.9448
head 7.95633 -13.1894 6.39145
rclavicle -2.5345e-014 -2.8625e-014
rhumerus 81.1195 38.5461 -16.7195
rradius 79.1304
rwrist 9.53896
rhand 5.08248 -6.31142
rfingers 7.12502
rthumb 30.4486 -33.8165
lclavicle -2.5345e-014 -2.8625e-014
lhumerus -43.4664 -50.0146 102.427
lradius 107.297
lwrist 21.2212
lhand -9.60417 -40.1487
lfingers 7.12502
lthumb 16.3648 -10.8191
rfemur 11.2072 -14.6641 16.6848
rtibia 4.77083e-015
rfoot -22.4259 -17.3381
rtoes -8.58478
lfemur -14.4626 -14.2857 -9.77886
ltibia 28.9385
lfoot -14.9918 2.08565
ltoes -58.8199
